{"glyphs":{":":{"x_min":0,"x_max":240,"ha":240,"o":"m 125 135 q 151 135 166 118 q 180 100 180 83 q 180 53 162 39 q 144 25 121 25 q 94 25 79 40 q 64 55 64 78 q 64 101 81 118 q 98 135 125 135 z m 121 433 q 147 433 162 416 q 176 398 176 381 q 176 351 158 337 q 140 323 117 323 q 90 323 75 338 q 60 353 60 376 q 60 399 77 416 q 94 433 121 433 z"},"$":{"x_min":0,"x_max":546,"ha":546,"o":"m 248 -8 q 229 -7 212 -5 q 186 -2 164 6 q 141 13 118 25 q 96 37 68 55 q 74 93 76 131 q 77 169 77 197 q 88 200 103 202 q 118 203 131 203 q 133 165 141 135 q 149 105 166 84 q 182 62 209 50 q 226 43 248 40 l 248 297 q 242 300 236 302 q 196 321 162 346 q 127 372 104 410 q 81 448 81 509 q 81 548 94 580 q 108 613 132 636 q 156 660 189 672 q 216 682 248 684 l 248 744 q 263 744 273 742 q 283 740 294 733 q 294 713 293 684 q 331 681 360 671 q 400 658 421 641 q 421 612 422 574 q 423 536 427 509 q 416 504 400 502 q 385 500 371 500 q 363 543 353 570 q 343 598 330 614 q 316 629 299 635 q 296 636 292 637 l 292 392 l 322 377 q 362 358 396 332 q 431 307 454 271 q 477 235 477 180 q 477 142 462 108 q 446 73 419 47 q 392 21 355 6 q 326 -5 293 -8 q 294 -55 294 -91 q 283 -91 269 -88 q 255 -85 248 -80 z m 292 274 l 292 39 q 312 41 328 47 q 349 56 363 70 q 377 84 384 102 q 392 121 392 142 q 392 187 369 215 q 346 243 311 263 q 302 269 292 274 z m 190 469 q 213 441 247 419 l 248 418 l 248 640 q 214 636 193 615 q 167 589 167 541 q 167 497 190 469 z"},"?":{"x_min":0,"x_max":537,"ha":537,"o":"m 274 714 q 309 714 338 706 q 368 697 390 681 q 411 665 423 641 q 435 617 435 586 q 435 537 412 501 q 390 465 362 431 q 335 397 312 359 q 290 321 290 269 q 290 257 293 236 q 296 215 301 201 q 292 196 284 194 q 275 193 265 193 q 248 204 234 238 q 219 272 219 315 q 219 348 228 374 q 238 399 252 420 q 266 441 282 459 q 299 477 313 495 q 327 513 336 532 q 346 552 346 577 q 346 620 322 646 q 297 673 265 673 q 227 673 206 643 q 185 613 177 544 q 163 544 146 546 q 130 549 120 554 q 121 572 122 586 q 123 601 123 614 q 123 628 122 642 q 122 655 120 671 q 145 687 181 700 q 217 714 274 714 z m 276 106 q 303 106 318 88 q 334 70 334 51 q 334 19 315 5 q 296 -9 272 -9 q 243 -9 228 6 q 212 22 212 46 q 212 71 230 88 q 247 106 276 106 z"},"<":{"x_min":0,"x_max":498,"ha":498,"o":"m 434 19 q 437 5 434 -12 q 432 -28 424 -37 q 373 2 328 35 q 283 68 239 100 q 195 131 149 164 q 103 196 49 232 q 47 245 48 260 q 49 274 58 287 l 403 564 q 419 560 430 554 q 440 548 450 537 l 98 258 z"},"'":{"x_min":0,"x_max":198,"ha":198,"o":"m 117 714 q 136 711 138 690 l 138 681 q 132 637 128 590 q 125 543 120 477 q 109 477 97 480 q 85 482 80 487 q 78 540 73 592 q 68 643 60 693 q 74 695 90 701 q 106 707 117 714 z"},"=":{"x_min":0,"x_max":540,"ha":540,"o":"m 495 196 q 495 181 493 170 q 491 159 484 148 q 454 148 430 148 q 406 149 383 149 l 216 149 q 189 149 162 148 q 135 148 106 148 q 78 147 44 147 q 44 158 47 174 q 50 189 55 196 z m 496 361 q 496 346 494 335 q 492 324 485 313 q 455 313 432 314 q 408 314 385 314 l 218 314 q 191 314 164 314 q 137 313 109 312 q 81 312 47 312 q 47 323 50 338 q 53 354 58 361 z"},"a":{"x_min":0,"x_max":483,"ha":483,"o":"m 306 227 q 280 224 252 218 q 224 213 201 202 q 178 191 162 172 q 147 152 147 119 q 147 82 165 65 q 183 48 206 48 q 222 48 240 56 q 257 64 272 81 q 287 98 296 124 q 306 151 306 189 z m 396 149 q 396 101 406 85 q 417 69 453 69 q 453 58 452 44 q 450 31 446 22 q 420 18 390 10 q 361 1 340 -9 q 330 -5 322 6 q 315 17 315 40 q 315 55 316 65 q 317 75 317 82 q 313 69 306 56 q 298 43 280 27 q 263 12 238 2 q 214 -7 180 -7 q 115 -7 82 21 q 50 49 50 99 q 50 148 78 178 q 107 209 148 228 q 188 246 232 254 q 275 263 306 268 q 306 299 305 319 q 304 339 302 352 q 300 366 296 375 q 291 384 285 392 q 261 422 221 422 q 198 422 182 410 q 166 398 156 380 q 145 363 140 343 q 136 323 135 306 q 124 306 108 308 q 91 309 83 313 q 85 338 84 368 q 83 399 78 422 q 118 442 162 454 q 206 467 253 467 q 287 467 311 456 q 335 446 354 428 q 367 415 375 400 q 383 385 388 364 q 392 344 394 318 q 396 292 396 256 z"},"L":{"x_min":0,"x_max":561,"ha":561,"o":"m 322 45 q 364 45 392 52 q 419 58 438 73 q 458 88 472 112 q 485 136 497 171 q 512 166 522 161 q 532 156 541 147 q 530 112 522 72 q 515 33 510 -2 q 495 -2 474 -2 q 452 -1 426 0 q 400 0 372 0 l 251 0 q 214 0 178 0 q 141 -1 108 -2 q 76 -2 57 -3 q 57 26 62 40 q 82 41 96 46 q 109 50 117 61 q 125 72 128 90 q 132 109 132 138 l 132 549 q 132 599 118 616 q 103 634 63 636 q 60 644 59 656 q 58 667 58 679 q 73 678 89 677 l 122 676 l 179 676 q 211 676 240 676 q 270 677 300 679 q 300 650 295 636 q 275 635 262 630 q 249 626 241 616 q 233 606 230 589 q 226 572 226 546 l 226 138 q 226 110 230 92 q 233 74 243 64 q 253 53 270 49 q 288 45 316 45 z"},"3":{"x_min":0,"x_max":513,"ha":513,"o":"m 263 500 q 325 500 362 500 q 399 501 426 502 q 434 495 436 484 q 439 474 438 462 q 405 422 362 368 q 319 314 268 248 q 305 250 340 238 q 375 226 402 201 q 430 176 446 138 q 463 100 463 50 q 463 6 444 -34 q 426 -74 392 -104 q 357 -135 308 -153 q 258 -171 196 -171 q 146 -171 109 -158 q 72 -145 50 -126 q 50 -118 53 -110 q 56 -101 64 -93 q 77 -102 108 -112 q 140 -121 191 -121 q 220 -121 250 -111 q 281 -101 306 -82 q 330 -62 346 -32 q 362 -3 362 36 q 362 94 326 133 q 290 172 217 172 q 198 172 185 165 q 177 173 172 183 q 167 193 167 200 q 227 276 268 330 q 308 383 334 420 l 212 420 q 190 420 176 418 q 161 415 150 408 q 140 400 132 386 q 125 373 118 350 q 107 350 96 353 q 85 356 77 363 q 85 400 86 434 q 88 467 88 502 q 113 501 156 500 q 199 500 263 500 z"},";":{"x_min":0,"x_max":259,"ha":259,"o":"m 143 421 q 169 421 184 404 q 198 386 198 369 q 198 339 180 325 q 162 311 139 311 q 112 311 97 326 q 82 341 82 364 q 82 387 99 404 q 116 421 143 421 z m 165 97 q 199 84 199 25 q 199 -5 190 -34 q 182 -62 167 -89 q 152 -116 132 -140 q 113 -164 92 -185 q 72 -185 60 -170 q 91 -135 108 -102 q 124 -69 124 -43 q 124 1 77 7 q 77 17 78 36 q 80 54 85 67 q 108 72 128 79 q 148 86 165 97 z"},"J":{"x_min":0,"x_max":338,"ha":338,"o":"m 229 125 q 229 55 222 1 q 216 -53 196 -97 q 176 -141 138 -178 q 99 -214 35 -249 q 21 -241 18 -223 q 46 -199 68 -174 q 90 -149 105 -118 q 120 -88 128 -51 q 135 -14 135 34 l 135 549 q 135 599 120 616 q 106 634 66 636 q 61 650 61 679 q 83 677 116 676 q 149 676 182 676 q 215 676 250 676 q 285 677 303 679 q 303 650 298 636 q 260 634 244 616 q 229 599 229 549 z"},"V":{"x_min":0,"x_max":686,"ha":686,"o":"m 225 527 q 268 429 309 330 q 347 239 386 141 q 421 230 453 316 q 489 412 523 514 q 542 569 534 600 q 526 631 479 636 q 476 647 475 659 q 474 671 474 679 q 496 677 516 676 q 536 676 559 676 q 582 676 610 676 q 639 677 661 679 q 661 668 660 658 q 659 647 656 636 q 625 628 608 598 q 590 568 572 518 q 525 388 478 258 q 430 129 379 -2 q 362 -6 340 -6 q 311 67 282 139 q 252 211 224 278 q 195 346 168 408 q 142 469 118 521 q 101 558 90 580 q 80 602 71 614 q 62 626 53 630 q 44 634 30 636 q 27 648 26 660 q 25 671 25 679 q 45 677 80 676 q 114 676 146 676 q 210 676 267 679 q 267 659 262 636 q 238 634 224 630 q 209 625 204 614 q 200 602 205 582 q 210 561 225 527 z"},"\"":{"x_min":0,"x_max":343,"ha":343,"o":"m 116 714 q 139 709 136 681 q 135 678 135 674 q 135 671 134 667 q 129 627 126 582 q 123 536 118 479 q 108 479 96 481 q 84 483 79 488 q 77 540 72 592 q 68 644 60 693 q 74 695 90 700 q 106 706 116 714 z m 263 714 q 283 709 283 687 l 283 681 q 278 638 274 590 q 270 542 265 478 q 254 478 242 480 q 229 482 224 487 q 222 539 218 592 q 214 644 206 693 q 220 695 236 701 q 252 707 263 714 z"},"7":{"x_min":0,"x_max":485,"ha":485,"o":"m 303 500 q 332 500 357 500 q 382 501 400 502 q 419 502 430 502 q 435 499 439 493 q 443 487 445 480 q 407 414 368 346 q 329 277 288 198 q 264 151 248 111 q 233 71 224 34 q 214 -4 210 -42 q 207 -79 207 -121 q 187 -134 168 -148 q 148 -162 136 -176 q 127 -174 122 -169 q 117 -164 117 -158 q 117 -126 125 -82 q 133 -38 147 10 q 154 35 172 75 q 189 115 214 166 q 240 218 274 279 q 307 340 347 409 l 188 409 q 167 409 152 407 q 136 405 125 398 q 114 390 106 376 q 98 363 91 340 q 81 340 70 343 q 58 346 50 352 q 59 390 63 425 q 67 460 67 502 q 106 500 145 500 z"},"S":{"x_min":0,"x_max":535,"ha":535,"o":"m 264 685 q 320 685 360 672 q 400 658 421 641 q 421 612 422 574 q 423 536 427 509 q 416 504 400 502 q 385 500 371 500 q 363 543 353 570 q 343 598 330 614 q 316 629 300 635 q 283 641 264 641 q 219 641 193 615 q 167 589 167 541 q 167 497 190 469 q 213 441 248 419 q 282 397 322 378 q 362 358 396 332 q 431 307 454 271 q 477 235 477 180 q 477 142 462 108 q 446 73 419 47 q 392 21 355 6 q 318 -9 274 -9 q 239 -9 212 -6 q 186 -2 164 6 q 141 13 118 25 q 96 37 68 55 q 74 93 76 131 q 77 169 77 197 q 88 200 103 202 q 118 203 131 203 q 133 165 141 135 q 149 105 166 84 q 182 62 210 50 q 237 39 279 39 q 307 39 328 48 q 349 56 363 70 q 377 84 384 102 q 392 121 392 142 q 392 187 369 215 q 346 243 312 264 q 277 284 236 302 q 196 321 162 346 q 127 372 104 410 q 81 448 81 509 q 81 548 94 580 q 108 613 132 636 q 156 660 190 672 q 223 685 264 685 z"},"}":{"x_min":0,"x_max":331,"ha":331,"o":"m 48 741 q 96 725 126 704 q 156 683 173 658 q 190 633 196 606 q 202 578 202 549 q 202 510 196 470 q 190 430 190 394 q 190 372 194 352 q 198 332 208 314 q 219 297 238 284 q 256 270 285 260 q 289 251 290 244 q 290 237 290 228 q 260 218 240 204 q 221 189 210 170 q 200 152 196 130 q 192 108 192 84 q 192 49 196 12 q 201 -25 201 -63 q 201 -95 195 -126 q 189 -156 171 -183 q 153 -210 122 -232 q 90 -255 39 -271 q 34 -265 34 -258 q 33 -252 33 -242 q 85 -226 103 -192 q 121 -157 121 -113 q 121 -66 111 -14 q 101 37 101 86 q 101 113 106 138 q 112 162 126 183 q 141 204 166 220 q 190 236 229 246 q 190 255 165 270 q 140 286 126 306 q 112 326 107 350 q 102 373 102 399 q 102 422 106 446 l 114 495 q 118 520 122 544 q 125 568 125 591 q 125 632 108 664 q 90 697 39 714 q 39 727 48 741 z"},"Z":{"x_min":0,"x_max":631,"ha":631,"o":"m 102 678 q 117 678 148 678 q 179 677 214 676 q 250 676 285 676 l 440 676 q 484 676 538 678 q 543 673 546 664 q 549 655 549 645 q 456 482 363 329 q 276 184 185 42 l 339 42 q 385 42 416 46 q 446 51 466 64 q 485 78 496 103 q 508 128 516 169 q 549 166 568 152 q 560 119 556 78 q 551 37 550 -3 q 513 -2 480 -2 q 448 -1 417 0 q 386 0 354 0 l 221 0 q 188 0 158 0 q 129 -1 105 -2 q 81 -2 66 -3 q 62 5 60 12 q 58 19 58 29 q 154 184 247 336 q 337 484 425 636 l 283 636 q 250 636 226 632 q 203 627 186 613 q 170 599 159 574 q 148 549 140 508 q 127 508 110 510 q 93 512 83 518 q 92 550 97 594 q 102 637 102 678 z"},"x":{"x_min":0,"x_max":521,"ha":521,"o":"m 302 102 q 288 123 272 146 q 259 167 244 187 l 203 126 q 171 80 177 60 q 183 40 212 40 q 215 32 216 20 q 218 9 218 -2 q 190 0 159 0 l 81 0 q 61 0 30 -2 q 30 9 31 20 q 32 32 36 40 q 49 41 62 45 q 74 49 87 59 q 100 69 114 86 q 129 103 148 129 l 217 226 q 198 252 180 278 q 159 308 142 331 q 121 359 107 376 q 93 394 83 403 q 73 412 64 416 q 56 419 44 420 q 37 435 37 460 q 59 459 86 458 q 113 458 142 458 l 201 458 q 231 458 257 460 q 257 450 256 439 q 254 428 252 420 q 217 418 211 404 q 205 389 237 346 l 259 316 q 270 301 282 284 l 322 346 q 348 386 346 402 q 344 418 311 420 q 307 429 306 439 q 305 449 305 460 q 324 459 344 458 q 364 458 394 458 q 424 458 443 458 q 462 459 478 460 q 478 449 476 438 q 474 428 472 420 q 461 419 452 416 q 442 414 432 406 q 423 399 412 386 q 400 373 385 351 l 311 246 q 332 218 354 188 q 381 151 401 122 q 417 98 429 82 q 441 67 450 58 q 460 48 468 44 q 477 40 487 40 q 491 30 492 20 q 492 11 492 -2 q 461 0 437 0 l 331 0 q 301 0 272 -2 q 272 11 272 21 q 273 31 276 40 q 311 41 318 54 q 325 67 302 102 z"},")":{"x_min":0,"x_max":291,"ha":291,"o":"m 76 741 q 124 672 158 610 q 192 547 214 486 q 236 426 246 366 q 256 305 256 240 q 256 94 208 -30 q 159 -154 71 -271 q 63 -273 52 -272 q 42 -271 35 -266 q 71 -210 96 -153 q 122 -96 138 -34 q 155 27 163 94 q 171 162 171 240 q 171 316 164 382 q 157 448 142 508 q 126 567 101 622 q 76 676 41 729 q 48 735 56 738 q 64 742 76 741 z"},"&":{"x_min":0,"x_max":742,"ha":742,"o":"m 572 102 q 584 89 596 80 q 607 72 620 67 q 632 62 648 59 q 664 56 687 55 q 687 45 686 33 q 685 21 681 10 q 667 10 647 8 q 627 7 606 4 q 585 2 566 -2 q 547 -5 535 -9 q 502 35 468 75 q 462 81 456 88 q 416 39 374 16 q 327 -10 268 -10 q 208 -10 167 10 q 126 29 101 60 q 76 92 65 131 q 54 170 54 208 q 54 246 66 279 q 77 312 96 340 q 116 368 143 391 q 162 407 182 421 l 174 435 q 159 467 150 500 q 142 532 142 568 q 142 596 153 623 q 164 650 185 671 q 206 692 236 704 q 267 717 306 717 q 349 717 380 708 q 410 700 442 682 q 438 656 436 626 q 435 595 437 565 q 425 560 410 558 q 396 557 384 557 q 380 621 360 647 q 341 673 300 673 q 265 673 243 650 q 221 628 221 587 q 221 565 225 545 q 229 525 240 503 q 250 481 268 454 q 286 427 315 391 q 331 371 351 347 q 371 323 400 290 q 430 256 471 210 q 478 203 484 196 q 509 235 523 266 q 539 301 547 334 q 557 373 540 390 q 524 408 472 419 q 469 429 467 440 q 465 451 465 461 q 486 459 514 458 q 542 458 567 458 q 592 458 621 458 q 650 459 667 461 q 667 452 666 440 q 665 429 663 420 q 632 409 618 391 q 604 373 594 338 q 581 293 561 249 q 544 211 516 161 q 542 134 572 102 z m 281 67 q 326 67 362 83 q 392 97 423 126 q 412 140 400 153 q 367 192 333 230 q 299 267 265 307 q 236 341 213 372 l 201 388 q 178 363 160 332 q 138 293 138 237 q 138 195 150 164 q 161 132 180 110 q 200 89 226 78 q 252 67 281 67 z"},"_":{"x_min":0,"x_max":566,"ha":566,"o":"m 506 -92 q 506 -103 503 -118 q 500 -134 495 -142 q 457 -142 428 -142 q 400 -141 374 -141 l 222 -141 q 199 -141 174 -142 q 150 -142 122 -142 q 94 -143 60 -143 q 60 -110 71 -92 z"},"v":{"x_min":0,"x_max":544,"ha":544,"o":"m 335 461 q 355 459 380 458 q 405 458 428 458 q 451 458 477 458 q 503 459 521 461 q 521 436 512 418 q 500 415 490 409 q 481 403 472 390 q 463 378 454 358 q 444 339 432 309 l 298 -9 q 286 -9 274 -7 q 261 -5 252 0 q 246 14 234 43 q 221 72 205 108 q 189 144 171 183 q 153 222 137 256 q 121 291 108 318 q 96 344 91 355 q 81 375 74 387 q 67 399 60 406 q 54 412 46 414 q 39 417 29 418 q 25 431 24 439 q 23 447 23 461 q 65 458 128 458 q 160 458 194 458 q 227 459 251 461 q 251 450 249 440 q 247 429 244 420 q 219 418 204 414 q 190 411 185 404 q 180 396 183 384 q 186 371 195 351 q 202 336 216 305 q 229 274 246 236 q 262 198 279 158 q 292 126 303 100 q 325 157 342 203 q 362 255 379 300 q 404 365 394 390 q 384 416 346 419 q 335 439 335 461 z"},"O":{"x_min":0,"x_max":731,"ha":731,"o":"m 35 340 q 35 416 60 480 q 86 543 130 589 q 175 635 236 660 q 296 685 365 685 q 437 685 498 660 q 558 635 602 590 q 646 544 671 480 q 696 417 696 340 q 696 266 672 202 q 647 139 603 92 q 559 45 498 18 q 438 -9 365 -9 q 291 -9 230 18 q 169 44 126 91 q 82 138 58 202 q 35 265 35 340 z m 138 367 q 138 304 154 245 q 170 186 202 140 q 233 95 279 68 q 325 40 385 40 q 434 40 472 62 q 511 83 538 120 q 565 157 579 207 q 593 257 593 314 q 593 381 574 440 q 555 499 522 543 q 489 587 444 612 q 398 637 344 637 q 300 637 262 618 q 224 598 196 562 q 169 527 154 478 q 138 428 138 367 z"},"(":{"x_min":0,"x_max":291,"ha":291,"o":"m 215 741 q 228 743 235 740 q 242 736 250 729 q 215 676 190 622 q 165 567 150 508 q 134 448 127 382 q 120 316 120 240 q 120 162 128 94 q 136 27 152 -34 q 169 -96 194 -153 q 220 -210 256 -266 q 249 -271 239 -272 q 229 -273 220 -271 q 132 -154 84 -30 q 35 94 35 240 q 35 305 45 366 q 55 426 77 486 q 99 547 133 610 q 167 672 215 741 z"},"C":{"x_min":0,"x_max":653,"ha":653,"o":"m 369 685 q 432 685 484 672 q 535 659 591 633 q 583 598 582 559 q 580 520 580 478 q 567 473 555 471 q 543 469 527 469 q 525 522 514 556 q 503 590 484 610 q 464 629 437 636 q 410 644 377 644 q 314 644 269 621 q 224 598 196 560 q 167 521 154 472 q 140 422 140 370 q 140 303 158 245 q 175 187 208 144 q 240 101 288 76 q 335 52 395 52 q 443 52 493 68 q 543 84 585 111 q 591 106 596 96 q 602 87 603 80 q 573 57 544 40 q 516 24 486 13 q 456 2 424 -4 q 391 -9 353 -9 q 283 -9 224 16 q 166 42 124 88 q 82 135 58 200 q 35 265 35 343 q 35 429 64 493 q 92 557 138 600 q 185 643 245 664 q 305 685 369 685 z"},"W":{"x_min":0,"x_max":1003,"ha":1003,"o":"m 25 679 q 49 677 82 676 q 115 676 138 676 l 165 676 q 180 676 196 676 q 213 677 229 678 q 245 678 259 679 q 259 671 258 660 q 257 648 254 636 q 228 634 213 630 q 198 627 192 616 q 187 606 191 586 q 195 566 207 533 q 223 487 241 435 q 259 383 277 330 q 295 276 312 223 q 322 191 332 161 l 503 679 q 511 682 521 683 q 531 684 547 684 q 572 619 600 548 q 627 478 654 406 q 681 334 707 263 q 726 211 744 162 l 841 494 q 852 532 855 558 q 858 583 852 600 q 847 616 832 624 q 817 633 793 636 q 789 646 788 658 q 786 671 786 679 q 828 676 883 676 q 906 676 932 676 q 958 677 978 679 q 978 669 976 658 q 975 647 971 636 q 958 633 948 626 q 938 618 928 602 q 919 586 909 560 q 899 533 887 491 l 741 -3 q 724 -9 701 -9 q 678 55 652 124 q 626 193 600 263 q 573 333 546 402 q 522 462 500 519 l 330 -3 q 322 -6 310 -8 q 298 -9 287 -9 q 244 125 200 257 q 155 389 109 521 q 95 561 86 584 q 77 606 69 617 q 61 628 52 631 q 43 634 30 636 q 27 646 26 657 q 25 668 25 679 z"},"A":{"x_min":0,"x_max":704,"ha":704,"o":"m 319 678 q 336 682 358 682 l 596 136 q 608 108 618 90 q 627 72 636 62 q 644 51 652 46 q 661 42 673 40 q 677 27 678 18 q 679 9 679 -3 q 671 -3 657 -2 q 643 -2 626 -1 l 593 0 l 565 0 q 553 0 536 0 q 520 -1 504 -2 q 488 -2 474 -2 q 459 -3 452 -3 q 452 9 453 20 q 454 31 459 40 q 480 42 492 46 q 503 50 507 58 q 511 67 508 81 q 505 95 495 118 l 451 220 q 386 220 314 219 q 245 218 186 216 l 160 147 q 137 88 146 66 q 155 43 196 40 q 203 23 203 -3 q 186 -1 160 0 q 133 0 108 0 q 83 0 61 -1 q 39 -2 25 -3 q 25 7 26 18 q 28 30 32 39 q 45 42 55 48 q 65 54 74 66 q 83 78 92 98 q 100 117 112 147 z m 205 265 l 432 265 l 356 443 q 349 458 344 471 q 338 484 332 498 q 327 511 321 525 q 317 537 311 551 q 301 518 292 494 q 283 468 274 444 z"},"f":{"x_min":0,"x_max":342,"ha":342,"o":"m 206 448 l 308 448 q 308 438 306 426 q 304 413 298 403 q 245 403 206 391 l 206 147 q 206 114 211 94 q 216 74 227 62 q 238 50 254 46 q 271 41 295 40 q 300 26 300 -3 q 277 -1 243 0 q 209 0 174 0 l 137 0 q 118 0 100 0 q 82 -1 67 -2 q 52 -2 42 -3 q 42 26 47 40 q 87 42 102 60 q 116 77 116 127 l 116 394 q 94 399 72 401 q 51 403 36 403 q 36 430 50 448 l 116 448 l 116 488 q 116 544 134 586 q 152 629 182 658 q 211 686 248 700 q 286 714 325 714 q 364 714 384 706 q 403 699 420 689 q 418 657 417 628 q 416 599 416 572 q 403 568 388 566 q 373 564 359 564 q 359 605 341 632 q 323 659 281 659 q 240 659 223 622 q 206 586 206 519 z"},"Q":{"x_min":0,"x_max":751,"ha":751,"o":"m 35 340 q 35 416 60 480 q 86 543 130 589 q 175 635 236 660 q 296 685 365 685 q 437 685 498 660 q 558 635 602 590 q 646 544 671 480 q 696 417 696 340 q 696 266 672 202 q 647 139 603 92 q 559 45 498 18 q 491 14 483 11 q 517 1 543 -14 q 579 -35 611 -56 q 643 -76 679 -90 q 715 -103 766 -98 q 766 -107 764 -118 q 763 -128 760 -138 q 731 -147 702 -157 q 674 -167 636 -184 q 603 -176 581 -161 q 559 -146 542 -128 q 524 -109 508 -90 q 492 -71 473 -54 q 454 -37 428 -25 q 402 -13 367 -9 l 365 -9 q 291 -9 230 18 q 169 44 126 91 q 82 138 58 202 q 35 265 35 340 z m 138 367 q 138 304 154 245 q 170 186 202 140 q 233 95 279 68 q 325 40 385 40 q 434 40 472 62 q 511 83 538 120 q 565 157 579 207 q 593 257 593 314 q 593 381 574 440 q 555 499 522 543 q 489 587 444 612 q 398 637 344 637 q 300 637 262 618 q 224 598 196 562 q 169 527 154 478 q 138 428 138 367 z"},"w":{"x_min":0,"x_max":774,"ha":774,"o":"m 434 458 q 450 422 468 379 q 487 336 506 290 q 526 243 546 195 q 562 156 577 118 l 631 288 q 643 324 645 348 q 647 372 641 386 q 635 401 622 408 q 609 415 591 417 q 582 438 582 461 q 601 459 625 458 q 649 458 671 458 q 724 458 759 461 q 759 436 751 417 q 740 414 732 408 q 723 401 715 388 q 707 374 698 351 q 689 328 677 291 l 576 -9 q 562 -9 550 -7 q 539 -5 530 0 q 513 42 494 88 q 475 133 455 179 q 435 225 415 270 q 402 300 390 328 l 259 -9 q 242 -9 232 -7 q 223 -5 215 0 q 183 91 149 179 q 115 267 77 358 q 66 386 54 398 q 43 410 21 417 q 17 427 16 439 q 15 451 15 460 q 35 459 58 458 q 80 458 113 458 q 146 458 172 458 q 197 459 223 461 q 223 451 222 438 q 221 425 218 417 q 176 412 170 398 q 164 385 175 357 q 199 298 224 229 q 246 171 265 119 l 394 462 q 404 462 415 461 q 426 460 434 458 z"},"-":{"x_min":0,"x_max":419,"ha":419,"o":"m 359 299 q 359 283 356 266 q 353 248 346 234 q 319 234 280 234 q 242 233 202 232 q 162 232 124 232 q 87 231 60 230 q 60 247 64 266 q 69 286 76 299 z"},"E":{"x_min":0,"x_max":584,"ha":584,"o":"m 486 679 q 487 662 490 642 q 492 621 494 600 q 497 578 500 558 q 503 537 507 521 q 499 514 488 512 q 476 509 462 509 q 460 532 452 555 q 445 578 426 596 q 408 614 377 625 q 346 636 298 636 l 226 636 l 226 362 l 268 362 q 299 362 320 366 q 341 369 354 378 q 367 387 373 403 q 379 419 379 443 q 392 447 402 448 q 413 450 427 450 q 425 424 425 395 l 425 283 q 425 251 427 225 q 413 225 402 226 q 392 227 381 230 q 379 256 372 273 q 366 290 353 300 q 340 311 320 315 q 299 319 268 319 l 226 319 l 226 138 q 226 110 230 92 q 233 74 243 64 q 253 53 270 49 q 288 45 316 45 l 322 45 q 368 45 397 53 q 426 61 444 77 q 463 93 474 116 q 486 140 497 171 q 512 166 522 161 q 532 156 541 147 q 530 112 522 72 q 515 33 510 -2 q 495 -2 474 -2 q 452 -1 426 0 q 400 0 372 0 l 251 0 q 214 0 178 0 q 141 -1 108 -2 q 76 -2 57 -3 q 57 26 62 40 q 82 41 96 46 q 109 50 117 61 q 125 72 128 90 q 132 109 132 138 l 132 549 q 132 599 118 616 q 103 634 63 636 q 60 644 59 656 q 58 667 58 679 q 73 678 96 678 q 119 677 144 676 q 168 676 190 676 l 226 676 q 329 676 395 677 q 461 678 486 679 z"},"s":{"x_min":0,"x_max":428,"ha":428,"o":"m 355 432 q 353 408 353 381 q 353 354 357 328 q 337 316 307 316 q 305 337 296 356 q 288 376 274 392 q 259 407 239 416 q 219 426 195 426 q 164 426 146 411 q 127 396 127 371 q 127 358 130 348 q 134 338 146 328 q 159 317 182 306 q 206 294 246 278 q 286 263 314 248 q 341 233 358 216 q 374 199 381 179 q 388 159 388 132 q 388 100 374 74 q 360 48 336 30 q 311 11 278 1 q 244 -9 205 -9 q 175 -9 152 -6 q 129 -4 110 0 q 90 5 74 12 q 57 19 40 28 q 41 40 42 56 q 43 72 43 90 q 43 107 42 124 q 42 140 41 152 q 49 158 64 160 q 78 163 93 163 q 101 100 132 69 q 163 38 215 38 q 256 38 278 56 q 301 74 301 102 q 301 115 296 126 q 292 136 280 146 q 268 155 247 166 q 226 176 193 190 q 152 206 124 220 q 96 235 78 252 q 61 269 53 290 q 45 312 45 342 q 45 374 62 398 q 78 421 103 436 q 128 452 157 460 q 186 467 211 467 q 256 467 290 458 q 324 449 355 432 z"},">":{"x_min":0,"x_max":492,"ha":492,"o":"m 397 258 l 45 537 q 55 548 66 554 q 76 560 92 564 l 437 287 q 446 274 447 260 q 448 245 446 232 q 392 196 346 164 q 300 131 256 100 q 212 68 167 35 q 122 2 71 -37 q 63 -28 60 -12 q 58 5 61 19 z"},"l":{"x_min":0,"x_max":300,"ha":300,"o":"m 110 575 q 110 593 108 606 q 106 619 98 628 q 90 637 75 642 q 60 646 35 646 q 35 657 37 666 q 39 675 44 683 q 55 683 74 686 q 93 689 113 694 q 133 698 151 704 q 169 711 178 717 q 187 714 194 705 q 200 696 200 677 l 200 127 q 200 77 214 58 q 227 40 259 40 q 262 29 263 16 q 264 4 264 -3 q 238 -1 209 0 q 180 0 151 0 q 122 0 92 0 q 61 -1 36 -3 q 36 7 37 18 q 38 30 41 40 q 81 40 96 58 q 110 77 110 127 z"},"8":{"x_min":0,"x_max":508,"ha":508,"o":"m 138 299 q 161 317 190 335 q 137 371 108 404 q 74 442 74 492 q 74 520 85 546 q 96 572 118 592 q 139 612 172 624 q 204 637 246 637 q 331 637 380 604 q 428 570 428 504 q 428 473 416 450 q 405 426 387 408 q 369 389 346 374 q 329 364 313 355 q 329 344 344 333 q 379 307 404 280 q 428 253 440 222 q 453 192 453 156 q 453 118 438 88 q 422 57 395 36 q 368 14 330 2 q 293 -9 249 -9 q 205 -9 170 3 q 134 15 108 36 q 83 56 69 84 q 55 111 55 141 q 55 176 64 204 q 74 232 92 256 q 111 279 138 299 z m 324 233 q 290 269 227 311 q 205 295 189 279 q 172 262 161 243 q 150 224 146 202 q 141 179 141 149 q 141 116 152 93 q 163 70 181 56 q 199 43 221 37 q 243 31 266 31 q 280 31 297 36 q 314 42 329 54 q 344 66 354 86 q 364 106 364 136 q 364 191 324 233 z m 264 386 q 270 382 277 378 q 307 398 321 421 q 338 448 338 491 q 338 543 312 570 q 286 597 251 597 q 214 597 192 576 q 169 555 168 512 q 167 473 189 446 q 211 418 264 386 z"},"\\":{"x_min":0,"x_max":364,"ha":364,"o":"m 25 709 q 30 711 36 712 q 43 713 51 713 q 70 713 78 709 l 341 0 q 333 -3 314 -4 q 296 -5 289 -3 z"},"e":{"x_min":0,"x_max":474,"ha":474,"o":"m 203 223 q 170 222 139 220 q 140 198 144 177 q 151 141 168 112 q 184 83 212 65 q 240 47 284 47 q 317 47 349 62 q 381 76 406 105 q 414 100 421 91 q 428 82 430 74 q 395 29 351 10 q 307 -9 252 -9 q 199 -9 159 10 q 119 29 92 61 q 66 93 53 136 q 40 180 40 229 q 40 277 54 320 q 69 363 96 396 q 122 429 160 448 q 199 467 247 467 q 296 467 330 450 q 364 434 386 406 q 408 378 420 340 q 431 303 434 260 q 430 240 419 226 l 368 226 q 334 226 292 226 q 249 225 203 223 z m 146 332 q 140 307 138 271 l 330 271 q 330 337 306 378 q 282 419 238 419 q 220 419 202 412 q 184 404 170 384 q 155 365 146 332 z"},"b":{"x_min":0,"x_max":547,"ha":547,"o":"m 258 -9 q 189 -9 141 10 q 93 30 63 59 q 73 72 79 100 q 85 127 85 186 l 85 575 q 85 593 83 606 q 81 619 73 628 q 65 637 50 642 q 35 646 10 646 q 10 657 12 666 q 14 675 19 683 q 30 683 49 686 q 68 689 88 694 q 108 698 126 704 q 144 711 153 717 q 162 714 168 705 q 175 696 175 677 l 175 416 q 175 398 172 381 q 171 377 170 371 q 178 386 183 393 q 190 404 202 417 q 215 430 233 441 q 251 452 273 460 q 295 467 320 467 q 408 467 458 414 q 507 361 507 245 q 507 192 489 146 q 471 100 438 66 q 406 31 360 11 q 314 -9 258 -9 z m 175 72 q 189 60 204 51 q 228 37 263 37 q 284 37 309 45 q 334 53 356 75 q 378 97 393 134 q 408 172 408 232 q 408 280 396 313 q 385 346 368 366 q 352 386 332 395 q 312 404 296 404 q 274 404 252 394 q 231 384 214 361 q 196 338 186 302 q 175 265 175 213 z"},"%":{"x_min":0,"x_max":834,"ha":834,"o":"m 174 -7 q 160 1 150 10 q 141 20 138 30 l 691 686 q 705 683 714 676 q 724 668 733 657 z m 626 311 q 663 311 690 298 q 718 284 736 262 q 755 241 764 214 q 774 186 774 159 q 774 125 764 94 q 753 64 732 41 q 712 18 682 4 q 653 -9 615 -9 q 576 -9 546 4 q 517 17 498 39 q 478 61 468 88 q 458 116 458 145 q 458 178 468 208 q 479 238 500 261 q 521 284 552 298 q 584 311 626 311 z m 612 269 q 597 269 584 260 q 571 252 561 237 q 551 222 546 202 q 540 182 540 158 q 540 104 562 68 q 584 33 624 33 q 636 33 648 40 q 660 47 670 61 q 680 75 686 96 q 693 117 693 145 q 693 199 670 234 q 648 269 612 269 z m 256 677 q 292 677 320 664 q 347 650 366 628 q 384 607 394 580 q 403 553 403 526 q 403 492 392 462 q 382 432 362 409 q 342 386 313 372 q 284 359 246 359 q 207 359 178 372 q 148 385 128 407 q 109 429 100 456 q 90 483 90 512 q 90 544 100 574 q 111 604 132 627 q 153 650 184 664 q 215 677 256 677 z m 243 635 q 211 635 189 604 q 167 573 167 525 q 167 471 190 436 q 213 401 254 401 q 266 401 279 408 q 292 415 302 429 q 313 443 320 464 q 327 484 327 512 q 327 566 304 600 q 280 635 243 635 z"},"m":{"x_min":0,"x_max":884,"ha":884,"o":"m 45 433 q 58 434 76 437 q 94 440 112 445 q 131 450 148 456 q 164 461 174 467 q 183 464 190 455 q 196 446 196 427 q 196 410 194 389 q 194 379 192 364 q 196 373 198 378 q 205 391 208 395 q 216 407 230 420 q 243 432 261 442 q 279 453 302 460 q 325 467 351 467 q 393 467 428 448 q 463 429 479 383 q 482 373 483 358 q 486 367 489 373 q 494 382 500 390 q 508 402 522 414 q 535 427 554 438 q 572 448 594 455 q 617 462 643 462 q 671 462 696 454 q 722 445 742 426 q 761 407 772 376 q 784 345 784 299 l 784 127 q 784 101 788 84 q 791 68 798 58 q 806 49 818 45 q 829 41 844 40 q 847 31 848 21 q 849 11 849 -3 q 826 -1 798 0 q 770 0 740 0 q 710 0 678 0 q 646 -1 621 -3 q 621 26 626 40 q 666 42 680 60 q 695 77 695 127 l 695 279 q 695 314 688 338 q 681 361 669 375 q 657 389 640 395 q 623 401 603 401 q 584 401 564 392 q 544 383 528 363 q 512 343 502 312 q 492 280 492 234 l 492 127 q 492 101 496 84 q 500 68 508 58 q 516 49 530 45 q 543 41 562 40 q 565 31 566 21 q 567 11 567 -3 q 541 -1 509 0 q 477 0 448 0 q 419 0 388 0 q 356 -1 329 -3 q 329 26 334 40 q 374 42 388 60 q 403 77 403 127 l 403 284 q 403 319 396 342 q 389 366 377 380 q 365 394 348 400 q 331 406 311 406 q 292 406 272 397 q 252 388 236 368 q 220 348 210 316 q 200 285 200 239 l 200 127 q 200 77 215 60 q 230 42 270 40 q 273 31 274 21 q 275 11 275 -3 q 249 -1 216 0 q 182 0 156 0 q 130 0 96 0 q 61 -1 37 -3 q 37 26 42 40 q 82 42 96 60 q 111 77 111 127 l 111 325 q 111 343 108 356 q 106 369 98 378 q 90 386 76 390 q 61 395 36 396 q 36 407 38 416 q 40 425 45 433 z"},"#":{"x_min":0,"x_max":603,"ha":603,"o":"m 473 443 l 435 263 l 544 263 q 544 248 542 238 q 540 228 532 214 l 425 214 l 378 -8 q 359 -5 350 0 q 342 6 334 14 l 376 214 q 322 214 280 213 l 216 213 l 170 -8 q 139 -4 127 18 l 168 213 q 125 213 98 212 l 54 212 q 54 237 66 263 l 179 263 l 217 442 l 188 442 q 146 442 107 441 q 107 452 110 466 q 112 479 119 492 l 227 492 l 275 714 q 289 712 300 708 q 310 703 318 692 l 275 492 l 436 492 l 483 714 q 513 708 526 694 l 483 492 l 586 492 q 586 477 584 466 q 582 456 574 443 z m 265 443 l 227 263 l 387 263 l 425 443 z"},",":{"x_min":0,"x_max":259,"ha":259,"o":"m 165 97 q 199 84 199 25 q 199 -5 190 -34 q 182 -62 167 -89 q 152 -116 132 -140 q 113 -164 92 -185 q 72 -185 60 -170 q 91 -135 108 -102 q 124 -69 124 -43 q 124 1 77 7 q 77 17 78 36 q 80 54 85 67 q 108 72 128 79 q 148 86 165 97 z"},"n":{"x_min":0,"x_max":596,"ha":596,"o":"m 497 127 q 497 75 512 58 q 526 40 556 40 q 559 31 560 21 q 561 11 561 -3 q 539 -1 511 0 q 483 0 452 0 q 421 0 388 -1 q 356 -2 333 -3 q 333 26 338 40 q 374 40 390 58 q 407 77 407 127 l 407 279 q 407 314 400 338 q 393 361 380 375 q 368 389 351 395 q 334 401 314 401 q 294 401 274 392 q 254 383 238 363 q 222 343 212 312 q 201 280 201 234 l 201 127 q 201 77 216 58 q 231 40 270 40 q 273 31 274 21 q 275 11 275 -3 q 254 -2 220 -1 q 187 0 156 0 q 125 0 92 0 q 59 -1 37 -3 q 37 26 42 40 q 81 40 96 58 q 111 77 111 127 l 111 325 q 111 343 108 356 q 106 369 98 378 q 90 386 76 390 q 61 395 36 396 q 36 407 38 416 q 40 425 45 433 q 60 434 78 438 q 97 441 116 446 q 134 450 150 456 q 167 461 179 467 q 188 464 194 454 q 201 445 201 423 q 201 411 200 396 q 199 381 194 364 q 197 369 200 376 q 203 382 209 390 q 217 402 231 414 q 245 427 264 438 q 282 448 304 455 q 327 462 354 462 q 382 462 408 454 q 434 445 454 426 q 474 407 486 376 q 497 345 497 299 z"},"h":{"x_min":0,"x_max":595,"ha":595,"o":"m 496 127 q 496 75 510 58 q 525 40 555 40 q 558 31 559 21 q 560 11 560 -3 q 538 -1 510 0 q 482 0 451 0 q 420 0 388 -1 q 355 -2 332 -3 q 332 26 337 40 q 373 40 390 58 q 406 77 406 127 l 406 279 q 406 314 399 338 q 392 361 380 375 q 367 389 350 395 q 333 401 313 401 q 293 401 273 392 q 253 383 237 363 q 221 343 210 312 q 200 280 200 234 l 200 127 q 200 77 215 58 q 230 40 269 40 q 272 31 273 21 q 274 11 274 -3 q 253 -2 220 -1 q 186 0 155 0 q 124 0 91 0 q 58 -1 36 -3 q 36 26 41 40 q 80 40 95 58 q 110 77 110 127 l 110 575 q 110 593 108 606 q 106 619 98 628 q 90 637 75 642 q 60 646 35 646 q 35 657 37 666 q 39 675 44 683 q 55 683 74 686 q 93 689 113 694 q 133 698 151 704 q 169 711 178 717 q 187 714 194 705 q 200 696 200 677 l 200 423 q 200 411 199 396 q 198 381 193 364 q 196 369 199 376 q 202 382 208 390 q 216 402 230 414 q 244 427 262 438 q 281 448 304 455 q 326 462 353 462 q 381 462 407 454 q 433 445 453 426 q 473 407 484 376 q 496 345 496 299 z"},"z":{"x_min":0,"x_max":501,"ha":501,"o":"m 67 461 q 82 460 104 460 q 126 459 151 458 q 176 458 201 458 l 297 458 q 322 458 346 458 q 370 459 391 460 q 412 460 427 461 q 434 453 437 441 q 440 429 440 418 q 423 393 400 361 q 377 329 352 294 q 327 259 300 222 q 273 185 248 150 q 223 116 200 85 q 184 63 170 45 l 297 45 q 324 45 342 49 q 359 53 370 64 q 381 76 386 98 q 392 120 395 156 q 407 156 420 155 q 433 154 448 150 q 448 138 448 120 q 449 103 450 84 q 451 66 452 48 q 454 30 456 17 q 452 9 444 4 q 436 -2 424 -2 q 405 -2 387 -2 q 369 -1 348 0 q 327 0 302 0 l 245 0 q 179 0 136 0 q 94 -1 67 -2 q 60 5 56 16 q 51 26 51 38 q 68 62 92 96 q 116 129 142 166 q 169 203 196 242 q 224 281 248 316 q 273 351 292 380 q 306 400 315 414 l 223 414 q 196 414 178 410 q 160 406 148 394 q 135 382 127 362 q 119 341 112 308 q 100 308 86 310 q 71 311 60 316 q 63 349 65 386 q 67 423 67 461 z"},"B":{"x_min":0,"x_max":632,"ha":632,"o":"m 162 676 q 198 676 234 677 q 270 678 305 678 q 348 678 386 672 q 425 665 454 648 q 484 632 501 604 q 518 576 518 532 q 518 467 479 422 q 440 377 373 367 q 412 365 448 356 q 483 346 510 326 q 537 307 553 275 q 569 243 569 197 q 569 156 556 120 q 542 84 513 58 q 484 31 438 16 q 393 0 329 0 l 262 0 q 223 0 184 0 q 145 -1 110 -2 q 76 -2 57 -3 q 57 26 62 40 q 82 41 96 46 q 109 50 117 61 q 125 72 128 90 q 132 109 132 138 l 132 549 q 132 599 118 616 q 103 634 63 636 q 60 644 59 656 q 58 667 58 679 q 78 677 106 676 q 135 676 162 676 z m 226 331 l 226 138 q 226 107 230 88 q 234 70 244 60 q 255 50 273 46 q 291 43 319 43 q 393 43 428 80 q 462 117 462 183 q 462 229 442 258 q 423 287 392 304 q 361 320 324 326 q 286 331 249 331 z m 241 634 q 234 633 226 631 l 226 376 l 257 376 q 305 376 336 386 q 367 397 385 415 q 403 433 410 456 q 416 478 416 502 q 416 541 402 567 q 388 593 366 608 q 344 624 318 630 q 292 636 267 636 q 253 636 241 634 z"},"K":{"x_min":0,"x_max":678,"ha":678,"o":"m 131 549 q 131 599 116 616 q 102 634 62 636 q 57 650 57 679 q 112 676 178 676 q 210 676 240 676 q 269 677 299 679 q 299 650 294 636 q 254 634 240 616 q 225 599 225 549 l 225 355 l 404 543 q 430 570 442 588 q 453 605 452 616 q 452 626 442 630 q 433 635 417 636 q 414 646 413 657 q 412 668 412 679 q 429 677 457 676 q 485 676 515 676 q 577 676 618 679 q 618 669 617 657 q 616 645 612 636 q 595 635 580 631 q 564 627 548 618 q 531 608 512 592 q 493 575 469 550 l 307 376 q 341 347 372 305 q 410 256 450 204 q 474 172 500 142 q 526 113 552 90 q 578 68 604 54 q 630 41 656 40 q 656 32 655 21 q 654 10 651 0 q 613 0 571 -1 q 529 -2 492 -6 q 474 23 442 69 q 409 115 370 165 q 330 215 287 261 q 254 298 225 325 l 225 127 q 225 77 240 60 q 254 42 294 40 q 299 26 299 -3 q 239 0 178 0 q 149 0 116 0 q 83 -1 57 -3 q 57 26 62 40 q 102 42 116 60 q 131 77 131 127 z"},"R":{"x_min":0,"x_max":685,"ha":685,"o":"m 177 676 q 219 676 260 677 q 302 678 344 678 q 401 678 442 665 q 483 652 510 630 q 536 607 549 576 q 562 546 562 510 q 562 440 514 392 q 470 348 395 328 q 408 316 419 304 q 433 289 446 270 q 459 252 473 228 q 487 204 506 169 q 541 106 575 74 q 609 42 659 40 q 659 28 658 18 q 658 8 655 -3 q 617 -3 576 -4 q 535 -5 498 -9 q 482 16 459 57 q 436 98 412 146 q 389 192 356 236 q 330 272 298 305 q 257 303 225 305 l 225 127 q 225 77 239 60 q 253 42 291 40 q 294 31 295 20 q 296 8 296 -3 q 264 -1 230 0 q 196 0 177 0 l 148 0 q 132 0 116 0 q 99 -1 84 -2 q 68 -2 57 -3 q 57 8 58 19 q 59 30 62 40 q 102 42 116 60 q 131 77 131 127 l 131 549 q 131 599 116 618 q 102 636 62 636 q 59 646 58 656 q 57 666 57 678 q 72 677 107 676 q 142 676 177 676 z m 258 640 q 242 638 225 634 l 225 354 q 235 352 244 352 q 256 351 269 351 q 310 351 346 360 q 381 368 408 386 q 434 405 449 433 q 464 461 464 500 q 464 563 426 602 q 389 642 299 642 q 276 642 258 640 z"},"T":{"x_min":0,"x_max":585,"ha":585,"o":"m 249 637 l 198 637 q 159 637 136 628 q 114 619 101 603 q 88 587 82 566 q 76 545 71 520 q 60 520 47 522 q 34 524 25 529 q 33 564 37 604 q 41 644 41 679 q 83 677 152 676 q 220 676 296 676 l 371 676 q 408 676 442 676 q 475 677 504 678 q 532 678 553 679 q 553 611 559 529 q 548 524 536 522 q 523 520 511 520 q 509 574 482 606 q 454 637 391 637 l 343 637 l 343 127 q 343 102 346 86 q 349 69 358 60 q 366 50 382 46 q 397 41 421 40 q 426 26 426 -3 q 394 -1 360 0 q 327 0 295 0 q 263 0 228 0 q 192 -1 164 -3 q 164 26 169 40 q 193 41 208 46 q 224 50 233 60 q 242 69 246 86 q 249 102 249 127 z"},"P":{"x_min":0,"x_max":583,"ha":583,"o":"m 250 638 q 240 637 225 634 l 225 147 q 225 114 230 94 q 235 74 246 62 q 257 50 274 46 q 290 41 314 40 q 319 26 319 -3 q 296 -1 262 0 q 228 0 193 0 l 155 0 q 136 0 117 0 q 98 -1 82 -2 q 67 -2 57 -3 q 57 26 62 40 q 102 42 116 60 q 131 77 131 127 l 131 549 q 131 599 116 616 q 102 634 62 636 q 57 650 57 679 q 96 677 132 676 q 169 676 193 676 q 219 676 256 677 q 292 678 335 678 q 390 678 430 662 q 470 646 496 618 q 522 591 534 554 q 547 517 547 475 q 547 437 533 398 q 519 358 490 326 q 462 294 420 274 q 377 253 320 253 q 299 253 282 256 q 264 259 250 264 q 248 272 248 281 q 249 290 251 297 q 276 291 306 291 q 334 291 360 298 q 386 305 406 323 q 427 341 440 372 q 452 403 452 451 q 452 493 442 528 q 432 562 411 587 q 390 612 358 626 q 326 640 281 640 q 264 640 250 638 z"},"|":{"x_min":0,"x_max":175,"ha":175,"o":"m 62 712 q 77 712 89 710 q 101 708 112 701 l 112 606 q 112 553 112 492 q 111 432 111 366 l 111 101 q 111 35 112 -26 q 112 -88 112 -142 l 112 -241 q 101 -241 85 -238 q 69 -235 62 -230 z"},"t":{"x_min":0,"x_max":351,"ha":351,"o":"m 92 448 l 92 580 q 112 585 132 596 q 152 607 167 620 q 172 618 175 616 q 178 613 180 608 q 182 602 182 593 q 183 584 183 568 l 183 448 l 312 448 q 312 426 303 404 q 230 401 183 391 l 183 141 q 183 90 198 68 q 213 45 240 45 q 261 45 276 51 q 292 57 306 69 q 319 54 321 36 q 304 17 272 4 q 240 -9 208 -9 q 148 -9 120 21 q 92 51 92 120 l 92 391 q 77 396 61 399 q 45 402 20 404 q 20 417 22 426 q 24 436 29 448 z"},"M":{"x_min":0,"x_max":935,"ha":935,"o":"m 162 676 q 199 676 238 679 l 488 126 l 706 679 q 723 677 744 676 q 764 676 784 676 q 804 676 822 676 q 840 677 860 679 q 860 668 859 658 q 858 647 855 636 q 837 636 823 632 q 809 627 800 616 q 791 604 788 584 q 784 565 787 535 l 823 168 q 827 131 832 107 q 837 83 846 69 q 854 55 866 48 q 878 42 896 41 q 899 30 900 18 q 901 7 901 -3 q 889 -2 874 -2 q 859 -1 843 0 q 827 0 810 0 l 781 0 q 754 0 720 0 q 685 -1 659 -3 q 659 6 660 18 q 662 30 665 40 q 689 42 703 48 q 717 54 723 66 q 729 79 729 100 q 729 122 726 155 l 690 498 l 483 -2 q 466 -9 442 -9 l 209 497 l 177 176 q 173 136 174 110 q 176 85 184 70 q 191 55 206 48 q 220 42 242 40 q 245 29 246 16 q 247 4 247 -3 q 223 -1 192 0 q 162 0 140 0 q 118 0 89 0 q 60 -1 40 -3 q 40 4 41 16 q 42 29 45 40 q 65 42 78 48 q 92 54 101 69 q 110 84 116 112 q 122 140 126 185 l 158 541 q 163 595 148 616 q 133 636 91 636 q 88 646 87 658 q 86 670 86 679 q 101 677 122 676 q 143 676 162 676 z"},"g":{"x_min":0,"x_max":511,"ha":511,"o":"m 237 467 q 272 467 300 458 l 464 458 q 468 445 470 428 q 471 412 471 396 q 459 399 443 402 q 427 405 410 408 q 394 410 378 412 l 374 412 l 378 408 q 400 384 410 356 q 420 328 420 307 q 420 272 408 242 q 397 211 374 188 q 351 165 317 152 q 283 139 239 139 q 203 139 170 149 q 166 151 162 152 q 151 141 145 131 q 137 116 137 105 q 137 91 142 83 q 146 75 162 70 q 177 66 206 64 q 234 63 282 63 q 332 63 366 57 q 401 51 422 38 q 444 25 454 4 q 463 -18 463 -48 q 463 -82 444 -118 q 426 -153 393 -182 q 360 -212 314 -230 q 269 -249 215 -249 q 122 -249 82 -214 q 41 -180 41 -114 q 41 -76 61 -48 q 79 -23 114 -6 q 104 -2 96 2 q 80 13 74 29 q 67 45 67 68 q 67 101 86 132 q 100 155 120 174 l 112 180 q 87 200 72 230 q 57 261 57 301 q 57 335 68 366 q 80 396 102 418 q 125 441 158 454 q 192 467 237 467 z m 215 -17 q 183 -17 160 -15 q 143 -30 136 -46 q 127 -66 127 -93 q 127 -144 152 -170 q 177 -196 239 -196 q 272 -196 298 -187 q 324 -178 342 -163 q 361 -148 370 -128 q 380 -108 380 -87 q 380 -68 374 -54 q 367 -41 349 -33 q 331 -25 298 -21 q 266 -17 215 -17 z m 227 422 q 207 422 192 413 q 178 404 168 389 q 158 374 154 354 q 149 335 149 314 q 149 251 176 218 q 203 185 251 185 q 284 185 305 212 q 326 239 326 292 q 326 319 320 342 q 313 366 300 384 q 287 401 269 412 q 251 422 227 422 z"},"j":{"x_min":0,"x_max":283,"ha":283,"o":"m 111 325 q 111 343 109 356 q 107 369 99 378 q 91 387 76 392 q 61 396 36 396 q 36 407 38 416 q 40 425 45 433 q 56 433 75 436 q 94 439 114 444 q 134 448 152 454 q 170 461 179 467 q 188 464 194 455 q 201 446 201 427 l 201 23 q 201 -28 186 -71 q 170 -114 146 -148 q 122 -183 92 -208 q 63 -234 35 -249 q 27 -245 21 -238 q 15 -231 13 -221 q 43 -187 62 -158 q 81 -129 92 -101 q 103 -73 107 -42 q 111 -12 111 26 z m 89 638 q 89 665 107 682 q 125 699 148 699 q 175 699 192 682 q 208 665 208 638 q 208 615 190 598 q 173 580 148 580 q 122 580 106 597 q 89 614 89 638 z"},"i":{"x_min":0,"x_max":302,"ha":302,"o":"m 89 638 q 89 665 107 682 q 125 699 148 699 q 175 699 192 682 q 208 665 208 638 q 208 615 190 598 q 173 580 148 580 q 122 580 106 597 q 89 614 89 638 z m 201 127 q 201 77 214 58 q 228 40 260 40 q 263 29 264 16 q 265 4 265 -3 q 239 -1 210 0 q 181 0 152 0 q 123 0 92 0 q 62 -1 37 -3 q 37 7 38 18 q 39 30 42 40 q 82 40 96 58 q 111 77 111 127 l 111 325 q 111 343 109 356 q 107 369 99 378 q 91 387 76 392 q 61 396 36 396 q 36 407 38 416 q 40 425 45 433 q 56 433 75 436 q 94 439 114 444 q 134 448 152 454 q 170 461 179 467 q 188 464 194 455 q 201 446 201 427 z"},"y":{"x_min":0,"x_max":551,"ha":551,"o":"m 384 298 q 397 330 400 351 q 402 372 396 386 q 390 399 376 406 q 361 413 339 417 q 332 437 332 460 q 355 458 379 458 l 483 458 q 508 458 531 460 q 531 450 530 439 q 530 428 525 417 q 511 414 501 408 q 491 402 482 390 q 474 379 465 360 q 456 341 444 313 l 297 -37 q 268 -105 246 -147 q 224 -189 204 -212 q 185 -234 166 -242 q 146 -249 123 -249 q 93 -249 76 -242 q 58 -234 48 -226 q 44 -211 45 -188 q 46 -166 49 -153 q 83 -159 113 -159 q 142 -159 168 -146 q 194 -132 214 -100 q 221 -90 232 -68 q 242 -47 255 -17 q 258 -12 260 -7 q 245 26 229 62 q 210 106 191 148 q 172 190 154 228 q 137 266 124 294 q 106 331 94 354 q 81 377 70 390 q 59 403 49 408 q 39 414 26 417 q 20 435 20 460 q 49 459 78 458 q 107 458 133 458 l 197 458 l 233 459 q 251 460 266 460 q 266 434 259 417 q 232 412 217 405 q 202 398 197 386 q 192 373 197 354 q 202 335 216 307 q 226 285 239 256 q 252 228 266 198 q 279 167 291 137 q 299 118 305 101 q 310 112 315 124 z"},"@":{"x_min":0,"x_max":1000,"ha":1000,"o":"m 503 467 q 532 467 556 464 q 573 462 594 458 q 604 458 615 460 q 630 462 644 467 q 651 465 655 460 q 659 455 662 444 q 664 434 665 416 q 666 399 666 371 l 666 180 q 666 143 667 121 q 668 99 672 88 q 675 76 682 72 q 690 69 702 69 q 717 69 738 87 q 759 105 778 141 q 797 177 810 230 q 824 282 824 351 q 824 405 806 454 q 787 502 750 539 q 712 576 656 598 q 601 619 527 619 q 442 619 378 590 q 315 561 272 510 q 230 459 209 389 q 188 319 188 237 q 188 159 210 88 q 231 16 275 -38 q 319 -93 385 -125 q 451 -157 541 -157 q 624 -157 697 -130 q 770 -103 823 -43 q 848 -47 854 -68 q 831 -100 796 -125 q 762 -150 720 -167 q 677 -184 628 -193 q 579 -202 527 -202 q 425 -202 350 -170 q 274 -138 224 -80 q 175 -23 150 56 q 126 135 126 228 q 126 318 154 396 q 181 475 234 534 q 286 592 362 626 q 439 660 537 660 q 621 660 684 636 q 747 612 789 571 q 831 530 852 476 q 873 421 873 359 q 873 278 852 210 q 831 143 798 94 q 766 46 726 18 q 686 -9 649 -9 q 610 -9 596 17 q 581 43 581 89 l 581 163 q 572 130 560 103 q 538 52 508 22 q 477 -9 440 -9 q 384 -9 350 38 q 316 85 316 198 q 316 257 330 306 q 343 356 368 392 q 393 427 427 447 q 461 467 503 467 z m 585 368 q 586 381 586 392 q 567 406 545 413 q 520 422 497 422 q 449 422 428 376 q 406 331 406 228 q 406 141 424 107 q 442 73 466 73 q 478 73 496 90 q 514 106 532 140 q 549 173 564 223 q 578 270 584 332 q 585 350 585 368 z"},".":{"x_min":0,"x_max":236,"ha":236,"o":"m 121 102 q 147 102 162 84 q 176 67 176 50 q 176 20 158 6 q 140 -8 117 -8 q 90 -8 75 7 q 60 22 60 45 q 60 68 77 85 q 94 102 121 102 z"},"p":{"x_min":0,"x_max":572,"ha":572,"o":"m 283 -9 q 254 -9 233 -4 q 218 0 200 4 l 200 -107 q 201 -136 206 -154 q 212 -171 223 -182 q 234 -192 250 -196 q 266 -201 289 -202 q 294 -216 294 -245 q 271 -243 237 -242 q 203 -242 168 -242 l 131 -242 q 112 -242 94 -242 q 76 -243 61 -244 q 46 -244 36 -245 q 36 -216 41 -202 q 81 -200 96 -182 q 110 -165 110 -115 l 110 325 q 110 343 108 356 q 105 369 97 378 q 89 386 74 390 q 60 395 35 396 q 35 407 37 416 q 39 425 44 433 q 59 434 78 438 q 96 441 114 446 q 133 450 150 456 q 166 461 178 467 q 187 464 194 454 q 200 445 200 423 q 200 400 193 379 q 189 366 183 348 l 193 368 q 203 385 208 393 q 215 404 228 417 q 240 430 258 441 q 276 452 298 460 q 320 467 345 467 q 433 467 482 415 q 532 363 532 254 q 532 198 514 150 q 496 102 464 66 q 431 31 385 11 q 339 -9 283 -9 z m 210 301 q 201 270 200 228 l 200 72 q 214 60 229 51 q 253 37 288 37 q 309 37 334 45 q 359 53 381 75 q 403 97 418 134 q 433 172 433 232 q 433 311 401 358 q 369 404 321 404 q 299 404 278 394 q 256 384 238 361 q 221 338 210 301 z"},"X":{"x_min":0,"x_max":638,"ha":638,"o":"m 267 529 q 309 465 348 403 l 422 518 q 442 550 451 572 q 460 593 458 606 q 455 620 442 626 q 430 633 407 636 q 404 647 403 659 q 402 671 402 679 q 427 677 454 676 q 481 676 504 676 q 527 676 556 676 q 584 677 603 679 q 603 669 602 658 q 602 647 599 636 q 587 633 576 628 q 565 622 552 610 q 539 597 522 576 q 506 555 484 521 l 377 358 q 381 350 386 343 q 444 251 500 157 q 521 122 536 100 q 551 78 564 66 q 576 53 586 48 q 597 42 609 40 q 615 22 615 -3 q 593 -1 558 0 q 524 0 493 0 q 462 0 428 0 q 395 -1 372 -2 q 372 7 373 18 q 374 29 376 40 q 395 42 407 46 q 419 51 422 62 q 425 73 418 92 q 411 112 392 144 q 350 214 307 284 l 220 155 q 182 99 184 74 q 187 49 237 40 q 240 29 241 18 q 242 7 242 -3 q 216 -1 188 0 q 160 0 132 0 q 104 0 76 0 q 48 -1 28 -3 q 28 5 29 18 q 30 31 34 42 q 58 48 87 70 q 116 93 153 144 l 281 327 l 279 330 q 221 422 159 516 q 132 556 116 579 q 101 602 90 614 q 79 625 70 629 q 62 633 50 635 q 46 647 45 658 q 44 668 44 679 q 70 677 104 676 q 137 676 166 676 q 194 676 229 676 q 264 677 287 678 q 287 669 286 658 q 285 647 283 636 q 262 632 250 626 q 238 619 236 607 q 233 595 241 576 q 249 557 267 529 z"},"*":{"x_min":0,"x_max":443,"ha":443,"o":"m 284 664 q 271 635 258 600 q 245 564 233 529 q 269 535 302 542 q 335 550 373 561 q 379 548 382 529 q 384 510 381 494 q 349 496 311 498 q 273 499 236 500 q 253 467 270 438 q 288 410 309 377 q 297 366 282 359 q 268 352 248 350 q 241 380 230 416 q 220 452 209 487 q 183 461 162 436 q 140 411 116 381 q 103 388 90 402 q 76 415 71 431 q 97 447 128 468 q 160 489 190 511 q 158 527 127 540 q 96 552 60 566 q 63 580 71 597 q 79 614 93 624 q 116 604 146 581 q 176 558 205 536 q 210 572 212 605 q 215 638 217 677 q 231 679 250 676 q 270 673 284 664 z"},"Y":{"x_min":0,"x_max":630,"ha":630,"o":"m 366 295 l 366 163 q 366 123 368 100 q 371 77 379 65 q 387 53 402 48 q 417 43 443 40 q 449 22 449 -3 l 383 -1 q 350 0 322 0 l 286 0 q 267 0 248 0 q 229 -1 212 -2 q 196 -2 186 -2 q 186 9 188 20 q 189 31 192 40 q 219 42 234 46 q 250 51 258 62 q 267 73 270 94 q 272 115 272 150 l 272 294 l 105 578 q 95 594 88 605 q 80 616 72 623 q 64 630 54 633 q 45 636 31 637 q 27 648 26 658 q 25 667 25 678 q 46 677 73 676 q 100 676 129 676 l 198 676 q 217 676 234 676 q 251 677 263 678 q 263 667 262 658 q 261 650 258 639 q 219 635 214 619 q 208 603 231 564 q 261 512 295 451 q 324 399 349 349 q 373 396 399 443 q 429 499 455 544 q 483 593 476 612 q 468 631 428 637 q 425 648 423 658 q 421 667 421 678 q 439 676 467 676 l 519 676 q 542 676 565 676 q 588 677 605 678 q 605 658 601 639 q 587 635 576 628 q 565 622 553 610 q 541 598 528 579 q 515 560 499 531 z"},"c":{"x_min":0,"x_max":447,"ha":447,"o":"m 412 78 q 385 35 345 13 q 305 -9 248 -9 q 210 -9 172 6 q 135 21 106 50 q 76 80 58 124 q 40 168 40 227 q 40 272 54 315 q 67 358 94 392 q 120 426 158 446 q 197 467 248 467 q 342 467 399 422 q 394 393 393 365 q 392 337 392 308 q 384 303 370 302 q 357 300 346 300 q 340 358 312 389 q 284 420 240 420 q 190 420 162 374 q 133 328 133 242 q 133 204 142 169 q 152 134 170 107 q 188 80 214 64 q 241 48 276 48 q 343 48 387 106 q 395 102 402 94 q 409 87 412 78 z"},"!":{"x_min":0,"x_max":411,"ha":411,"o":"m 246 714 q 267 707 264 683 q 259 636 254 580 q 249 524 244 464 q 240 404 236 343 q 232 282 230 225 q 218 225 206 226 q 194 227 185 231 q 181 301 176 361 q 172 421 168 475 q 163 529 158 580 q 152 630 145 681 q 155 683 169 687 q 183 691 198 696 q 212 700 225 704 q 238 709 246 714 z m 211 102 q 237 102 252 84 q 266 67 266 50 q 266 20 248 6 q 230 -8 207 -8 q 180 -8 165 7 q 150 22 150 45 q 150 68 167 85 q 184 102 211 102 z"},"/":{"x_min":0,"x_max":365,"ha":365,"o":"m 76 -9 q 62 -4 50 3 q 38 10 33 17 l 291 713 q 302 710 314 702 q 327 695 334 687 z"},"[":{"x_min":0,"x_max":310,"ha":310,"o":"m 70 742 q 96 740 120 740 l 211 740 q 232 740 261 742 q 268 736 270 726 q 272 715 272 704 q 232 701 206 696 q 181 692 166 682 q 151 673 146 656 q 140 639 140 610 l 140 -157 q 140 -181 148 -194 q 155 -208 170 -216 q 185 -223 208 -226 q 231 -228 261 -229 q 268 -237 270 -246 q 272 -255 272 -269 q 251 -267 223 -267 l 123 -267 q 96 -267 70 -269 z"},"6":{"x_min":0,"x_max":501,"ha":501,"o":"m 414 607 q 343 592 289 567 q 235 542 199 500 q 163 458 144 395 q 137 371 132 342 q 149 353 164 362 q 184 374 202 381 q 220 388 238 392 q 255 395 274 395 q 360 395 410 348 q 461 301 461 212 q 461 162 444 122 q 427 81 398 52 q 369 23 331 7 q 293 -9 250 -9 q 142 -9 88 54 q 35 118 35 240 q 35 352 70 427 q 106 502 160 548 q 215 594 280 614 q 345 635 404 638 q 409 632 412 626 q 414 619 414 607 z m 179 328 q 157 322 128 303 q 126 275 126 244 q 126 183 140 143 q 154 103 174 80 q 195 56 218 46 q 241 37 259 37 q 289 37 310 50 q 332 63 346 83 q 359 103 366 128 q 372 152 372 175 q 372 223 358 254 q 344 285 322 304 q 301 322 276 329 q 251 336 229 336 q 204 336 179 328 z"},"r":{"x_min":0,"x_max":419,"ha":419,"o":"m 209 298 q 202 276 201 253 l 201 147 q 201 114 206 94 q 211 74 222 62 q 233 50 250 46 q 266 41 290 40 q 295 26 295 -3 q 272 -1 238 0 q 204 0 169 0 l 132 0 q 113 0 95 0 q 77 -1 62 -2 q 47 -2 37 -3 q 37 26 42 40 q 82 42 96 60 q 111 77 111 127 l 111 325 q 111 343 108 356 q 106 369 98 378 q 90 386 76 390 q 61 395 36 396 q 36 407 38 416 q 40 425 45 433 q 60 434 78 438 q 97 441 116 446 q 134 450 150 456 q 167 461 179 467 q 188 464 194 454 q 201 445 201 423 q 201 388 195 361 l 186 320 q 192 335 195 347 q 201 365 209 377 q 231 412 261 435 q 291 458 330 458 q 350 458 366 452 q 383 446 399 434 q 395 409 394 376 q 392 342 392 316 q 383 313 368 310 q 352 307 335 307 q 333 355 320 370 q 306 385 286 385 q 273 385 258 374 q 243 363 230 344 q 218 324 209 298 z"},"2":{"x_min":0,"x_max":537,"ha":537,"o":"m 278 506 q 303 506 330 500 q 357 493 380 478 q 402 462 416 437 q 430 412 430 376 q 430 353 424 334 q 419 315 406 296 q 393 276 372 254 q 351 232 320 204 q 294 181 261 150 q 233 123 198 90 l 344 90 q 365 90 378 92 q 391 93 398 100 q 406 106 410 118 q 413 130 414 151 q 443 151 461 144 q 461 106 464 78 q 466 49 472 21 q 467 12 460 5 q 452 -2 440 -2 q 392 -1 344 0 q 295 0 243 0 l 202 0 q 180 0 157 0 q 134 -1 113 -2 q 92 -2 78 -2 q 70 7 68 16 q 65 25 65 39 q 108 79 152 118 q 195 158 236 194 q 264 219 282 240 q 301 261 312 280 q 324 300 328 320 q 333 340 333 363 q 333 381 326 396 q 320 412 308 424 q 296 436 280 443 q 265 450 247 450 q 205 450 183 422 q 161 394 151 321 q 138 321 122 322 q 107 324 97 328 q 98 341 99 358 q 100 375 100 392 q 100 410 99 427 q 98 444 95 458 q 114 471 132 480 q 151 489 173 495 q 195 501 220 504 q 246 506 278 506 z"},"{":{"x_min":0,"x_max":352,"ha":352,"o":"m 277 741 q 286 727 286 714 q 235 697 218 664 q 200 632 200 591 q 200 568 204 544 q 207 520 211 495 l 219 446 q 223 422 223 399 q 223 373 218 350 q 213 326 199 306 q 185 286 160 270 q 135 255 96 246 q 135 236 160 220 q 184 204 198 183 q 213 162 218 138 q 224 113 224 86 q 224 37 214 -14 q 204 -66 204 -113 q 204 -135 208 -154 q 212 -174 222 -191 q 232 -208 249 -221 q 266 -234 292 -242 q 292 -252 292 -258 q 291 -265 286 -271 q 235 -255 204 -232 q 172 -210 154 -183 q 136 -156 130 -126 q 124 -95 124 -63 q 124 -25 128 12 q 133 49 133 84 q 133 108 129 130 q 125 152 114 170 q 104 189 84 204 q 65 218 35 228 q 35 237 36 244 q 36 251 40 260 q 69 270 88 284 q 106 297 116 314 q 127 332 131 352 q 135 372 135 394 q 135 430 129 470 q 123 510 123 549 q 123 578 129 606 q 135 633 152 658 q 169 683 199 704 q 229 725 277 741 z"},"9":{"x_min":0,"x_max":519,"ha":519,"o":"m 373 113 q 378 128 382 144 q 351 119 322 107 q 287 93 245 93 q 203 93 166 106 q 128 120 100 145 q 73 170 56 205 q 40 240 40 283 q 40 337 58 378 q 75 420 105 448 q 135 477 176 492 q 216 506 263 506 q 378 506 431 439 q 484 372 484 242 q 484 176 465 122 q 446 67 415 23 q 384 -21 344 -55 q 303 -89 259 -113 q 215 -137 171 -151 q 127 -165 90 -170 q 83 -161 82 -153 q 80 -145 80 -134 q 159 -104 218 -68 q 276 -32 315 13 q 354 58 373 113 z m 351 167 q 373 175 390 191 q 392 213 392 235 q 392 295 382 338 q 371 381 352 408 q 334 436 308 449 q 281 462 249 462 q 223 462 202 450 q 181 439 166 420 q 150 400 142 374 q 133 347 133 318 q 133 265 148 234 q 164 202 188 184 q 212 167 240 162 q 268 156 293 156 q 323 156 351 167 z"}," ":{"x_min":0,"x_max":200,"ha":200,"o":""},"I":{"x_min":0,"x_max":355,"ha":355,"o":"m 131 549 q 131 599 116 616 q 102 634 62 636 q 57 650 57 679 q 112 676 178 676 q 210 676 240 676 q 269 677 299 679 q 299 650 294 636 q 254 634 240 616 q 225 599 225 549 l 225 127 q 225 77 240 60 q 254 42 294 40 q 299 26 299 -3 q 239 0 178 0 q 149 0 116 0 q 83 -1 57 -3 q 57 26 62 40 q 102 42 116 60 q 131 77 131 127 z"},"H":{"x_min":0,"x_max":754,"ha":754,"o":"m 530 325 l 471 325 q 426 325 378 324 q 331 324 286 322 q 251 321 225 319 l 225 127 q 225 77 240 60 q 254 42 294 40 q 299 26 299 -3 q 239 0 178 0 q 149 0 116 0 q 83 -1 57 -3 q 57 26 62 40 q 102 42 116 60 q 131 77 131 127 l 131 549 q 131 599 116 616 q 102 634 62 636 q 57 650 57 679 q 112 676 178 676 q 210 676 240 676 q 269 677 299 679 q 299 650 294 636 q 254 634 240 616 q 225 599 225 549 l 225 368 l 530 368 l 530 549 q 530 599 516 616 q 501 634 461 636 q 456 650 456 679 q 511 676 577 676 q 609 676 638 676 q 668 677 698 679 q 698 650 693 636 q 653 634 638 616 q 624 599 624 549 l 624 127 q 624 77 638 60 q 653 42 693 40 q 698 26 698 -3 q 638 0 577 0 q 548 0 515 0 q 482 -1 456 -3 q 456 26 461 40 q 501 42 516 60 q 530 77 530 127 z"},"4":{"x_min":0,"x_max":597,"ha":597,"o":"m 431 0 l 431 -152 q 422 -152 408 -154 q 394 -157 382 -160 q 369 -163 359 -166 q 349 -170 348 -171 q 337 -160 337 -138 l 337 0 l 330 0 q 253 0 190 -2 q 127 -4 63 -6 q 57 0 51 10 q 45 21 45 32 q 59 50 78 76 q 97 101 119 132 q 141 162 165 196 q 189 231 214 266 q 238 300 262 334 q 286 369 308 400 q 331 432 351 459 q 371 486 386 506 q 398 506 410 504 q 423 501 431 496 l 431 79 l 518 79 q 538 79 547 70 q 540 56 534 35 q 529 14 529 0 z m 337 79 l 337 357 l 152 79 z"},"~":{"x_min":0,"x_max":585,"ha":585,"o":"m 63 213 q 45 221 42 239 q 83 294 120 314 q 157 335 192 335 q 220 335 247 326 q 274 317 300 306 q 327 296 354 287 q 381 278 408 278 q 433 278 458 288 q 484 298 511 323 q 522 322 528 320 q 535 317 543 310 q 501 256 465 236 q 429 216 397 216 q 370 216 344 226 q 319 235 294 247 q 268 259 242 268 q 216 278 188 278 q 159 278 128 264 q 98 250 63 213 z"},"D":{"x_min":0,"x_max":731,"ha":731,"o":"m 58 679 q 68 678 84 678 q 99 677 116 676 q 133 676 151 676 l 185 676 q 218 676 251 677 q 284 678 316 678 q 382 678 450 666 q 518 654 572 620 q 627 585 662 522 q 696 458 696 355 q 696 274 676 216 q 655 158 622 119 q 590 80 548 56 q 507 32 465 20 q 423 8 384 4 q 344 0 316 0 l 251 0 q 214 0 178 0 q 141 -1 108 -2 q 76 -2 57 -3 q 57 26 62 40 q 82 41 96 46 q 109 50 117 61 q 125 72 128 90 q 132 109 132 138 l 132 549 q 132 599 118 616 q 103 634 63 636 q 60 644 59 656 q 58 667 58 679 z m 226 138 q 226 110 230 92 q 233 74 243 64 q 253 53 270 49 q 288 45 316 45 q 376 45 426 60 q 477 74 514 108 q 551 142 572 198 q 593 255 593 340 q 593 421 568 478 q 544 535 503 571 q 462 607 409 624 q 356 640 300 640 q 282 640 260 638 q 239 635 226 631 z"},"^":{"x_min":0,"x_max":556,"ha":556,"o":"m 277 644 q 221 578 167 510 q 113 443 70 383 q 59 393 53 404 q 47 414 43 430 l 249 685 q 260 692 276 694 q 291 696 304 694 q 324 663 350 626 q 376 588 403 549 q 430 510 458 472 q 485 435 508 404 q 499 396 482 394 q 466 391 452 394 z"},"0":{"x_min":0,"x_max":601,"ha":601,"o":"m 275 455 q 240 455 213 440 q 186 426 168 400 q 150 375 140 342 q 131 308 131 269 q 131 232 144 193 q 158 154 184 122 q 210 89 246 68 q 283 48 330 48 q 366 48 392 63 q 418 78 434 104 q 451 129 459 162 q 467 196 467 233 q 467 267 454 306 q 442 345 418 378 q 393 411 357 433 q 321 455 275 455 z m 304 506 q 353 506 399 490 q 445 473 481 441 q 517 409 539 362 q 561 315 561 255 q 561 195 540 146 q 519 97 484 62 q 449 28 402 10 q 355 -9 304 -9 q 252 -9 204 10 q 156 28 120 62 q 83 97 62 146 q 40 195 40 255 q 40 315 63 362 q 86 409 124 441 q 161 473 208 490 q 255 506 304 506 z"},"F":{"x_min":0,"x_max":542,"ha":542,"o":"m 482 679 q 483 662 486 642 q 488 621 490 600 q 493 578 496 558 q 499 537 503 521 q 495 514 484 512 q 472 509 458 509 q 456 532 448 555 q 441 578 422 596 q 404 614 373 625 q 342 636 294 636 l 225 636 l 225 342 l 274 342 q 305 342 326 346 q 347 349 360 358 q 373 367 379 383 q 385 399 385 423 q 398 427 408 428 q 419 430 433 430 q 431 404 431 375 l 431 263 q 431 231 433 205 q 419 205 408 206 q 398 207 387 210 q 385 236 378 253 q 372 270 359 280 q 346 291 326 295 q 305 299 274 299 l 225 299 l 225 147 q 225 114 230 94 q 235 74 246 62 q 257 50 274 46 q 290 41 314 40 q 319 26 319 -3 q 296 -1 262 0 q 228 0 193 0 l 155 0 q 136 0 117 0 q 98 -1 82 -2 q 67 -2 57 -3 q 57 26 62 40 q 102 42 116 60 q 131 77 131 127 l 131 549 q 131 599 116 616 q 102 634 62 636 q 57 650 57 679 q 73 678 95 678 q 117 677 140 676 q 162 676 184 676 l 225 676 q 327 676 392 677 q 457 678 482 679 z"},"`":{"x_min":0,"x_max":266,"ha":266,"o":"m 156 537 q 147 532 136 532 q 126 533 116 535 q 81 589 51 630 q 21 670 -11 704 q 9 714 34 715 q 60 716 85 712 q 98 669 115 626 q 132 582 156 537 z"},"k":{"x_min":0,"x_max":545,"ha":545,"o":"m 110 575 q 110 593 108 606 q 106 619 98 628 q 90 637 75 642 q 60 646 35 646 q 35 657 37 666 q 39 675 44 683 q 55 683 74 686 q 93 689 113 694 q 133 698 151 704 q 169 711 178 717 q 187 714 194 705 q 200 696 200 677 l 200 261 l 267 323 q 301 354 316 373 q 331 392 331 403 q 331 419 302 419 q 296 438 296 460 q 328 458 354 458 l 442 458 q 467 458 494 460 q 494 450 492 438 q 491 427 487 418 q 458 417 430 404 q 402 391 365 357 l 278 278 q 286 268 295 258 q 313 239 332 216 q 351 193 373 166 q 395 139 421 106 q 438 85 450 72 q 462 60 473 54 q 484 48 496 46 q 508 44 525 43 q 525 14 520 0 q 484 0 454 -2 q 425 -4 392 -9 q 379 12 354 45 q 330 78 300 115 q 271 152 240 187 q 219 212 200 232 l 200 127 q 200 77 214 58 q 227 40 259 40 q 262 29 263 16 q 264 4 264 -3 q 238 -1 209 0 q 180 0 151 0 q 122 0 92 0 q 61 -1 36 -3 q 36 7 37 18 q 38 30 41 40 q 81 40 96 58 q 110 77 110 127 z"},"u":{"x_min":0,"x_max":563,"ha":563,"o":"m 371 330 q 371 348 368 361 q 366 374 358 382 q 350 391 336 396 q 321 400 296 401 q 296 412 297 420 q 298 429 303 438 q 342 440 379 448 q 416 456 439 467 q 448 464 454 454 q 461 445 461 423 l 461 136 q 461 118 463 105 q 465 92 472 84 q 479 75 492 70 q 505 66 528 65 q 528 54 527 44 q 526 33 522 22 q 511 22 494 20 q 477 17 460 13 q 442 9 426 3 q 411 -3 402 -9 q 393 -6 385 4 q 377 14 377 40 q 377 60 379 80 l 379 89 q 369 67 349 47 q 298 -4 228 -4 q 193 -4 166 5 q 138 14 119 34 q 100 55 90 89 q 81 123 81 174 l 81 325 q 81 343 80 356 q 78 369 71 378 q 64 386 51 390 q 38 395 15 396 q 15 407 16 416 q 17 424 22 433 q 37 434 54 438 q 72 441 89 446 q 106 450 122 456 q 137 461 149 467 q 158 464 164 454 q 171 445 171 423 l 171 196 q 171 120 191 88 q 211 57 261 57 q 281 57 301 67 q 321 77 336 98 q 352 119 362 152 q 371 184 371 228 z"},"]":{"x_min":0,"x_max":309,"ha":309,"o":"m 246 -269 q 220 -267 192 -267 l 92 -267 q 65 -267 44 -269 q 44 -255 46 -246 q 48 -237 55 -229 q 85 -228 108 -226 q 131 -223 146 -216 q 161 -208 168 -194 q 176 -181 176 -157 l 176 610 q 176 639 170 656 q 165 673 150 682 q 135 692 110 696 q 84 701 44 704 q 44 715 46 726 q 48 736 55 742 q 84 740 104 740 l 195 740 q 220 740 246 742 z"},"U":{"x_min":0,"x_max":705,"ha":705,"o":"m 585 269 q 585 226 582 192 q 580 159 574 132 q 567 106 556 86 q 545 65 528 48 q 499 19 458 5 q 417 -9 366 -9 q 296 -9 249 6 q 202 22 174 52 q 145 83 133 128 q 121 173 121 231 l 121 549 q 121 576 118 592 q 116 608 110 617 q 103 626 92 630 q 80 634 62 636 q 59 647 58 658 q 57 669 57 679 q 77 677 110 676 q 142 676 173 676 q 204 676 235 676 q 266 677 289 679 q 289 669 288 658 q 287 647 284 636 q 262 634 248 630 q 235 627 228 618 q 220 609 218 592 q 215 576 215 549 l 215 245 q 215 203 223 166 q 231 129 250 102 q 270 75 302 60 q 335 44 385 44 q 410 44 440 52 q 470 61 491 82 q 503 94 511 108 q 519 122 524 143 q 529 164 532 192 q 534 221 534 261 l 534 509 q 534 545 532 568 q 529 592 522 606 q 514 621 500 628 q 487 634 465 636 q 462 651 461 660 q 460 668 460 679 q 477 677 504 676 q 531 676 554 676 q 577 676 603 676 q 629 677 649 679 q 649 672 648 662 q 647 653 644 636 q 627 634 616 628 q 604 621 597 607 q 590 593 588 569 q 585 545 585 509 z"},"o":{"x_min":0,"x_max":532,"ha":532,"o":"m 141 250 q 141 148 177 94 q 213 39 274 39 q 334 39 363 88 q 392 138 392 217 q 392 263 381 300 q 370 338 352 364 q 333 391 308 405 q 284 419 256 419 q 198 419 170 372 q 141 325 141 250 z m 40 229 q 40 280 56 324 q 73 367 103 399 q 133 431 174 449 q 216 467 266 467 q 319 467 361 450 q 403 433 432 402 q 461 370 476 326 q 492 282 492 229 q 492 178 476 134 q 459 90 430 58 q 400 27 358 9 q 317 -9 266 -9 q 215 -9 173 8 q 131 25 102 56 q 72 87 56 131 q 40 175 40 229 z"},"N":{"x_min":0,"x_max":758,"ha":758,"o":"m 513 679 q 535 677 560 676 q 586 676 607 676 q 628 676 655 676 q 682 677 702 679 q 702 669 701 658 q 700 647 697 636 q 680 636 669 629 q 658 622 651 606 q 644 589 641 562 q 638 535 638 494 l 638 -4 q 630 -7 619 -8 q 608 -9 597 -9 l 182 533 l 182 187 q 182 145 185 116 q 188 88 196 71 q 204 54 218 47 q 231 40 251 40 q 254 31 255 21 q 256 11 256 -3 q 233 -1 206 0 q 179 0 157 0 q 135 0 106 0 q 76 -1 57 -3 q 57 10 58 20 q 59 31 62 40 q 82 40 96 47 q 109 54 117 71 q 125 88 128 116 q 131 145 131 187 l 131 600 l 127 605 q 113 623 100 628 q 87 634 62 636 q 59 647 58 659 q 57 671 57 679 q 72 677 92 676 q 112 676 131 676 q 171 676 198 679 l 587 163 l 587 494 q 587 535 584 562 q 581 589 573 606 q 565 622 552 629 q 538 636 518 636 q 515 653 514 662 q 513 670 513 679 z"},"+":{"x_min":0,"x_max":578,"ha":578,"o":"m 262 139 q 263 174 263 208 l 263 238 l 240 238 q 208 238 174 238 q 141 237 108 236 q 75 236 46 236 q 46 247 48 264 q 51 280 56 287 l 263 287 l 263 371 q 263 397 262 426 q 262 456 262 495 q 273 502 285 504 q 297 505 312 505 l 312 287 l 531 287 q 531 272 530 260 q 528 248 521 237 q 482 237 453 238 q 424 238 399 238 l 312 238 l 312 16 q 305 11 288 8 q 272 6 261 6 q 261 36 262 70 q 262 104 262 139 z"},"G":{"x_min":0,"x_max":731,"ha":731,"o":"m 519 181 q 519 215 516 234 q 513 254 504 264 q 495 274 478 277 q 461 280 433 281 q 430 289 428 302 q 427 315 427 327 q 446 325 482 324 q 518 324 549 324 q 580 324 615 324 q 650 325 666 326 q 666 317 665 304 q 664 291 660 281 q 645 280 636 277 q 627 274 622 264 q 616 254 614 234 q 613 215 613 181 l 613 136 q 613 115 616 98 q 618 81 626 66 q 583 34 516 12 q 449 -9 364 -9 q 290 -9 230 16 q 169 42 126 88 q 82 135 58 200 q 35 266 35 347 q 35 431 64 494 q 94 558 143 600 q 192 642 254 664 q 316 685 382 685 q 454 685 516 672 q 577 659 622 638 q 615 603 613 566 q 611 528 611 483 q 587 474 558 474 q 556 526 542 560 q 529 593 506 612 q 484 630 454 637 q 424 644 390 644 q 326 644 279 621 q 232 598 202 560 q 171 522 156 472 q 141 423 141 369 q 141 301 156 241 q 171 181 202 136 q 232 92 278 66 q 323 40 384 40 q 414 40 438 43 q 461 46 485 56 q 502 63 510 78 q 519 93 519 131 z"},"q":{"x_min":0,"x_max":546,"ha":546,"o":"m 293 -202 q 317 -201 332 -196 q 347 -192 356 -182 q 365 -173 368 -156 q 372 -140 372 -115 l 372 20 q 372 45 376 70 q 379 89 384 116 q 380 106 376 96 q 367 75 358 63 q 348 50 333 38 q 318 27 300 18 q 283 9 264 4 q 244 -1 224 -1 q 188 -1 154 12 q 121 26 96 53 q 70 80 55 120 q 40 160 40 214 q 40 265 58 311 q 75 357 107 392 q 139 426 184 446 q 229 467 284 467 q 353 467 402 449 q 450 431 482 400 q 472 385 467 360 q 462 336 462 291 l 462 -115 q 462 -165 476 -182 q 491 -200 531 -202 q 534 -211 535 -221 q 536 -231 536 -245 q 527 -244 512 -244 q 498 -243 481 -242 q 464 -242 446 -242 l 412 -242 q 380 -242 347 -242 q 314 -243 288 -245 q 288 -216 293 -202 z m 361 151 q 370 180 372 221 l 372 386 q 361 398 337 410 q 313 421 288 421 q 222 421 180 371 q 139 321 139 227 q 139 180 150 148 q 161 116 178 96 q 196 77 218 68 q 240 60 261 60 q 278 60 298 68 q 317 77 334 98 q 350 118 361 151 z"},"d":{"x_min":0,"x_max":562,"ha":562,"o":"m 289 467 q 318 467 339 462 q 354 458 372 453 l 372 575 q 372 593 370 606 q 368 619 360 628 q 352 637 337 642 q 322 646 297 646 q 297 657 299 666 q 301 675 306 683 q 317 683 336 686 q 355 689 375 694 q 395 698 413 704 q 431 711 440 717 q 449 714 456 705 q 462 696 462 677 l 462 127 q 463 96 475 82 q 487 67 529 65 q 529 54 528 44 q 527 33 523 22 q 512 22 496 20 q 479 17 462 13 q 446 9 431 3 q 416 -3 407 -9 q 398 -6 390 4 q 382 14 382 40 q 382 58 383 76 q 384 89 387 108 q 383 98 378 90 q 369 73 364 65 q 357 54 344 41 q 332 28 314 17 q 296 6 274 -2 q 252 -9 227 -9 q 139 -9 90 44 q 40 97 40 213 q 40 265 58 312 q 76 358 108 392 q 141 427 187 447 q 233 467 289 467 z m 361 156 q 370 186 372 229 l 372 385 q 358 397 342 407 q 319 421 284 421 q 263 421 238 413 q 213 405 191 383 q 169 361 154 324 q 139 286 139 226 q 139 178 150 145 q 162 112 178 92 q 195 72 214 63 q 234 54 251 54 q 273 54 294 64 q 316 74 334 97 q 351 120 361 156 z"},"1":{"x_min":0,"x_max":388,"ha":388,"o":"m 239 127 q 239 102 242 86 q 246 69 254 60 q 262 50 275 46 q 288 41 308 40 q 311 29 312 18 q 313 8 313 -3 q 298 -2 281 -1 l 248 0 l 194 0 q 167 0 134 0 q 102 -1 75 -3 q 75 8 76 18 q 77 29 80 40 q 118 42 134 60 q 149 77 149 127 l 149 373 q 149 397 146 414 q 143 430 135 440 q 127 450 114 454 q 101 459 80 460 q 75 480 75 503 q 87 502 102 502 q 118 501 134 500 q 151 500 166 500 l 194 500 q 226 500 258 500 q 289 501 313 503 q 313 480 308 460 q 268 458 254 440 q 239 422 239 373 z"},"5":{"x_min":0,"x_max":481,"ha":481,"o":"m 134 502 q 160 501 182 500 q 205 500 225 500 l 307 500 q 336 500 348 514 q 359 528 359 548 q 368 551 380 552 q 393 553 404 553 q 400 526 399 494 q 398 463 398 428 q 393 420 383 415 q 373 410 353 410 l 308 410 q 280 410 250 410 q 221 409 196 408 q 170 408 160 407 l 136 306 q 200 292 252 273 q 305 254 342 226 q 380 197 400 158 q 421 120 421 67 q 421 9 398 -36 q 374 -80 338 -110 q 302 -140 258 -156 q 215 -171 175 -171 q 137 -171 106 -162 q 76 -153 60 -139 q 60 -122 73 -106 q 86 -111 114 -116 q 141 -121 171 -121 q 201 -121 228 -110 q 255 -99 276 -78 q 297 -57 309 -27 q 321 3 321 40 q 321 83 300 115 q 278 147 244 170 q 211 192 170 205 q 129 218 90 222 q 82 227 78 236 q 73 245 73 253 z"}}}
